<svg width="1193" height="943" viewBox="0 0 1193 943" fill="none" xmlns="http://www.w3.org/2000/svg">
<g clip-path="url(#clip0_210_631)">
<path d="M294.466 860.46L296.893 909.765L296.893 909.767C297.302 918.1 294.261 926.248 288.438 932.42C282.615 938.592 274.488 942.281 265.843 942.677L264.784 942.725L260.812 861.999L294.466 860.46Z" fill="#2F2E41"/>
<path d="M1021.65 777.139C997.292 822.965 966.393 867.285 927.299 907.398C926.431 908.304 925.554 909.187 924.669 910.085L832.043 867.815C832.609 866.907 833.231 865.889 833.899 864.775C873.688 799.15 1113.87 398.834 1106.28 308.167C1107.17 315.645 1135.64 562.94 1021.65 777.139Z" fill="#E6E6E6"/>
<path d="M945.169 915.553C943.872 916.263 942.543 916.959 941.205 917.631L871.719 885.921C872.69 885.256 873.822 884.47 875.122 883.587C896.411 868.853 959.712 824.647 1021.65 777.139C1088.22 726.084 1153.22 671.228 1162.87 645.043C1160.91 651.048 1099.99 833.565 945.169 915.553Z" fill="#E6E6E6"/>
<path d="M115.587 940.756C174.811 940.756 222.822 894.474 222.822 837.383C222.822 780.292 174.811 734.011 115.587 734.011C56.3618 734.011 8.35059 780.292 8.35059 837.383C8.35059 894.474 56.3618 940.756 115.587 940.756Z" fill="#A27B5C"/>
<path d="M158.542 794.004H72.6314C68.8352 794.008 65.1958 795.464 62.5115 798.051C59.8272 800.639 58.3173 804.147 58.313 807.806V866.96C58.3172 870.619 59.8271 874.128 62.5114 876.715C65.1957 879.303 68.8352 880.759 72.6314 880.763H158.542C162.338 880.759 165.977 879.303 168.662 876.715C171.346 874.128 172.856 870.619 172.86 866.96V807.806C172.856 804.147 171.346 800.639 168.662 798.051C165.977 795.463 162.338 794.008 158.542 794.004ZM158.542 801.891C159.055 801.893 159.565 801.957 160.061 802.082L115.596 836.274L71.3915 802.013C71.7994 801.932 72.2148 801.891 72.6313 801.891H158.542ZM158.542 872.875H72.6314C71.0045 872.874 69.4447 872.25 68.2943 871.141C67.1439 870.032 66.4968 868.528 66.4949 866.96V808.338L113.023 844.4C113.748 844.962 114.649 845.269 115.579 845.27C116.508 845.272 117.411 844.968 118.138 844.41L164.678 808.621V866.96C164.676 868.528 164.029 870.032 162.879 871.141C161.728 872.25 160.169 872.874 158.542 872.875Z" fill="white"/>
<path d="M529.435 688.14L553.429 688.33C555.857 688.349 558.26 687.858 560.471 686.89C562.681 685.922 564.646 684.501 566.229 682.726C567.811 680.95 568.973 678.864 569.632 676.611C570.292 674.359 570.434 671.995 570.049 669.684C569.634 667.197 568.62 664.839 567.087 662.799C565.554 660.759 563.546 659.094 561.224 657.939C558.902 656.783 556.331 656.169 553.718 656.147C551.105 656.124 548.523 656.693 546.179 657.807L523.552 668.571L446.159 685.208L413.003 652.53L393.958 682.768L438.699 716.09L529.435 688.14Z" fill="#FFB8B8"/>
<path d="M524.938 927.11L496.669 932.35C477.359 873.675 456.438 818.11 456.439 775.133C429.112 804.451 395.225 821.224 355.322 826.491L359.671 761.508L392.289 744.738L442.212 722.527C446.582 720.582 451.298 719.458 456.105 719.214C465.451 718.74 474.649 721.615 481.928 727.287C489.206 732.958 494.051 741.025 495.53 749.933L524.938 927.11Z" fill="#2F2E41"/>
<path d="M389.571 818.63L378.304 826.885C373.459 830.434 367.735 832.701 361.701 833.459C355.667 834.217 349.532 833.441 343.905 831.208C311.633 807.889 288.706 814.769 267.926 849.965C243.002 822.849 236.853 783.684 259.097 743.166L382.504 745.786L407.511 738.45L389.571 818.63Z" fill="#2F2E41"/>
<path d="M348.472 940.066C341.401 942.163 333.789 941.795 326.971 939.026C320.153 936.257 314.563 931.263 311.181 924.92C300.091 915.504 290.733 902.022 282.617 885.628C276.794 873.601 271.793 861.22 267.648 848.564C262.032 831.844 271.423 813.577 288.9 808.575C289.42 808.426 289.946 808.286 290.479 808.154C313.811 802.379 337.771 815.352 345.747 837.264L368.938 900.978C370.308 904.741 370.896 908.729 370.667 912.711C370.439 916.694 369.399 920.595 367.607 924.19C365.814 927.785 363.305 931.005 360.222 933.666C357.139 936.326 353.543 938.375 349.638 939.696C349.252 939.826 348.863 939.95 348.472 940.066Z" fill="#2F2E41"/>
<path opacity="0.2" d="M278.668 878.373C278.668 878.373 305.85 907.72 311.286 924.49L278.668 878.373Z" fill="black"/>
<path d="M173.245 739.872L164.148 761.275C163.227 763.441 162.808 765.774 162.919 768.112C163.03 770.45 163.669 772.737 164.791 774.813C165.912 776.888 167.491 778.703 169.415 780.13C171.339 781.558 173.563 782.563 175.932 783.077C178.481 783.629 181.13 783.598 183.664 782.984C186.198 782.37 188.547 781.191 190.523 779.542C192.498 777.893 194.044 775.82 195.037 773.49C196.03 771.16 196.441 768.638 196.238 766.127L194.278 741.877L207.007 666.431L250.797 648.897L228.75 620.618L180.035 648.281L173.245 739.872Z" fill="#FFB8B8"/>
<path d="M390.658 743.166C359.418 793.751 297.139 813.338 243.798 773.728C253.181 744.008 283.476 661.87 263.905 658.726C222.351 675.524 222.291 636.083 214.518 616.344L309.112 582.805L360.214 596.43L370.69 600.013C377.507 602.345 383.42 606.634 387.633 612.302C391.847 617.97 394.159 624.746 394.258 631.719C372.791 661.614 356.9 693.504 390.658 743.166Z" fill="#A27B5C"/>
<path d="M402.618 702.289L365.107 672.418L377.611 602.719L428.713 655.124L402.618 702.289Z" fill="#A27B5C"/>
<path d="M1025.05 223.472H1019.69V81.9228C1019.69 60.1955 1010.73 39.3581 994.795 23.9946C978.857 8.63113 957.241 0 934.702 0H623.601C601.061 0 579.445 8.63113 563.508 23.9946C547.57 39.3581 538.616 60.1955 538.616 81.9228V858.476C538.616 880.203 547.57 901.04 563.508 916.404C579.445 931.767 601.061 940.398 623.601 940.398H934.7C957.239 940.398 978.856 931.767 994.793 916.404C1010.73 901.04 1019.68 880.203 1019.68 858.476V324.229H1025.05L1025.05 223.472Z" fill="#3F3D56"/>
<path d="M938.13 21.3116H897.521C899.39 25.7254 900.103 30.5145 899.599 35.2569C899.095 39.9993 897.389 44.5493 894.63 48.5061C891.872 52.4629 888.146 55.705 883.782 57.9466C879.417 60.1883 874.548 61.3607 869.603 61.3607H691.378C686.433 61.3603 681.564 60.1877 677.2 57.9461C672.836 55.7046 669.111 52.4629 666.353 48.5067C663.595 44.5504 661.889 40.0011 661.384 35.2593C660.88 30.5176 661.593 25.729 663.46 21.3154H625.525C608.693 21.3154 592.55 27.7613 580.647 39.235C568.745 50.7086 562.058 66.2703 562.058 82.4965V857.906C562.058 874.132 568.745 889.694 580.647 901.167C592.55 912.641 608.693 919.087 625.525 919.087H938.118C954.951 919.087 971.094 912.641 982.997 901.167C994.899 889.694 1001.59 874.132 1001.59 857.906V857.906V82.4926C1001.59 66.2664 994.899 50.7047 982.997 39.231C971.094 27.7574 954.951 21.3115 938.118 21.3115H938.13L938.13 21.3116Z" fill="white"/>
<path d="M782.365 875.754C801.613 875.754 817.217 860.713 817.217 842.158C817.217 823.603 801.613 808.562 782.365 808.562C763.117 808.562 747.513 823.603 747.513 842.158C747.513 860.713 763.117 875.754 782.365 875.754Z" fill="#E6E6E6"/>
<path d="M640.979 531.462C637.685 531.462 635.004 534.412 635.004 538.036C635.004 541.661 637.685 544.611 640.979 544.611H922.665C925.959 544.611 928.64 541.661 928.64 538.036C928.64 534.412 925.959 531.462 922.665 531.462H640.979Z" fill="#E6E6E6"/>
<path d="M640.979 686.521C637.685 686.521 635.004 689.471 635.004 693.095C635.004 696.72 637.685 699.67 640.979 699.67H922.665C925.959 699.67 928.64 696.72 928.64 693.095C928.64 689.471 925.959 686.521 922.665 686.521H640.979Z" fill="#E6E6E6"/>
<path d="M640.979 570.908C637.685 570.908 635.004 573.858 635.004 577.483C635.004 581.107 637.685 584.057 640.979 584.057H762.189C765.484 584.057 768.164 581.107 768.164 577.483C768.164 573.858 765.484 570.908 762.189 570.908H640.979Z" fill="#E6E6E6"/>
<path d="M640.979 608.508C637.685 608.508 635.004 611.457 635.004 615.082C635.004 618.707 637.685 621.657 640.979 621.657H922.665C925.959 621.657 928.64 618.707 928.64 615.082C928.64 611.457 925.959 608.508 922.665 608.508H640.979Z" fill="#E6E6E6"/>
<path d="M640.979 647.954C637.685 647.954 635.004 650.904 635.004 654.528C635.004 658.153 637.685 661.103 640.979 661.103H762.189C765.484 661.103 768.164 658.153 768.164 654.528C768.164 650.904 765.484 647.954 762.189 647.954H640.979Z" fill="#E6E6E6"/>
<path d="M694.156 232.106H869.505C871.442 232.109 873.299 232.851 874.669 234.172C876.038 235.492 876.809 237.282 876.811 239.149V415.189C876.809 417.056 876.038 418.846 874.669 420.167C873.299 421.487 871.442 422.23 869.505 422.232H694.156C692.219 422.23 690.362 421.487 688.992 420.167C687.623 418.846 686.852 417.056 686.85 415.189V239.149C686.852 237.282 687.623 235.492 688.992 234.172C690.362 232.851 692.219 232.109 694.156 232.106Z" fill="#A27B5C"/>
<path d="M832.142 385.929C832.794 385.931 833.439 385.808 834.042 385.568C834.645 385.329 835.193 384.977 835.655 384.533C836.116 384.089 836.483 383.562 836.733 382.981C836.983 382.401 837.112 381.779 837.112 381.15C837.112 380.522 836.984 379.899 836.735 379.318C836.485 378.738 836.119 378.21 835.658 377.766C835.197 377.321 834.649 376.969 834.047 376.729C833.444 376.489 832.798 376.366 832.146 376.366H731.519C730.867 376.365 730.221 376.488 729.619 376.727C729.016 376.967 728.468 377.319 728.006 377.762C727.545 378.206 727.178 378.734 726.928 379.314C726.678 379.895 726.549 380.517 726.549 381.145C726.549 381.774 726.677 382.396 726.926 382.977C727.176 383.558 727.542 384.086 728.003 384.53C728.464 384.974 729.012 385.326 729.614 385.567C730.217 385.807 730.862 385.93 731.514 385.929H832.142Z" fill="white"/>
<path d="M832.142 357.757C833.457 357.757 834.719 357.254 835.649 356.357C836.579 355.46 837.102 354.244 837.102 352.976C837.102 351.708 836.579 350.492 835.649 349.595C834.719 348.698 833.457 348.194 832.142 348.194H731.52C730.204 348.194 728.942 348.697 728.011 349.593C727.081 350.489 726.558 351.705 726.557 352.974C726.556 354.242 727.078 355.458 728.008 356.355C728.938 357.252 730.199 357.757 731.515 357.757H832.142Z" fill="white"/>
<path d="M781.83 268.409C788.005 268.409 794.042 270.174 799.176 273.482C804.311 276.789 808.313 281.489 810.676 286.989C813.039 292.489 813.657 298.54 812.453 304.379C811.248 310.217 808.274 315.58 803.908 319.789C799.541 323.998 793.978 326.865 787.921 328.026C781.865 329.187 775.587 328.591 769.882 326.313C764.177 324.035 759.3 320.178 755.87 315.228C752.439 310.279 750.608 304.46 750.608 298.507C750.617 290.527 753.91 282.877 759.763 277.235C765.616 271.592 773.552 268.418 781.83 268.409Z" fill="white"/>
<path d="M383.454 573.679H290.763C288.856 573.677 287.028 572.946 285.68 571.646C284.332 570.347 283.573 568.585 283.571 566.747V528.233C283.571 514.545 289.212 501.418 299.252 491.74C309.292 482.061 322.91 476.624 337.109 476.624C351.308 476.624 364.925 482.061 374.965 491.74C385.006 501.418 390.646 514.545 390.646 528.233V566.747C390.644 568.585 389.886 570.347 388.537 571.647C387.189 572.946 385.361 573.677 383.454 573.679Z" fill="#2F2E41"/>
<path d="M381.784 551.671C392.182 533.334 385.191 510.344 366.17 500.321C347.148 490.297 323.299 497.036 312.901 515.372C302.502 533.709 309.493 556.699 328.515 566.722C347.536 576.746 371.386 570.007 381.784 551.671Z" fill="#FFB6B6"/>
<path d="M403.312 532.084H346.633L346.052 524.24L343.146 532.084H334.418L333.267 516.537L327.507 532.084H310.62V531.314C310.632 520.49 315.098 510.114 323.038 502.46C330.977 494.807 341.742 490.502 352.97 490.489H360.961C372.189 490.501 382.954 494.807 390.894 502.46C398.833 510.114 403.299 520.49 403.312 531.314V532.084Z" fill="#2F2E41"/>
<path d="M346.169 580.869C345.742 580.869 345.316 580.832 344.896 580.761L303.394 573.702V507.581H349.08L347.949 508.852C332.212 526.545 344.068 555.233 352.536 570.759C353.16 571.896 353.438 573.18 353.339 574.463C353.239 575.746 352.766 576.976 351.973 578.01C351.309 578.895 350.437 579.616 349.428 580.113C348.419 580.61 347.302 580.869 346.169 580.869Z" fill="#2F2E41"/>
<path d="M484.348 907.321L535.553 907.319H535.555C544.209 907.319 552.509 910.633 558.629 916.532C564.748 922.431 568.186 930.432 568.187 938.774V939.797L484.35 939.8L484.348 907.321Z" fill="#2F2E41"/>
<path d="M1191.66 943H1.34045C0.98494 943 0.643991 942.864 0.392608 942.621C0.141225 942.379 0 942.05 0 941.708C0 941.365 0.141225 941.036 0.392608 940.794C0.643991 940.552 0.98494 940.416 1.34045 940.416H1191.66C1192.02 940.416 1192.36 940.552 1192.61 940.794C1192.86 941.036 1193 941.365 1193 941.708C1193 942.05 1192.86 942.379 1192.61 942.621C1192.36 942.864 1192.02 943 1191.66 943Z" fill="#CACACA"/>
</g>
<defs>
<clipPath id="clip0_210_631">
<rect width="1193" height="943" fill="white"/>
</clipPath>
</defs>
</svg>
